<?xml version="1.0" encoding="utf-8"?>
<!-- Generator: Adobe Illustrator 25.2.0, SVG Export Plug-In . SVG Version: 6.00 Build 0)  -->
<svg version="1.1" id="Capa_1" xmlns="http://www.w3.org/2000/svg" xmlns:xlink="http://www.w3.org/1999/xlink" x="0px" y="0px"
	 viewBox="0 0 24 24" style="enable-background:new 0 0 24 24;" xml:space="preserve">
<style type="text/css">
	.st0{fill:#1C69D4;}
</style>
<path class="st0" d="M9,13h2v2c0,0.3,0.1,0.5,0.3,0.7S11.7,16,12,16s0.5-0.1,0.7-0.3S13,15.3,13,15v-2h2c0.3,0,0.5-0.1,0.7-0.3
	S16,12.3,16,12s-0.1-0.5-0.3-0.7S15.3,11,15,11h-2V9c0-0.3-0.1-0.5-0.3-0.7C12.5,8.1,12.3,8,12,8s-0.5,0.1-0.7,0.3
	C11.1,8.5,11,8.7,11,9v2H9c-0.3,0-0.5,0.1-0.7,0.3C8.1,11.5,8,11.7,8,12s0.1,0.5,0.3,0.7C8.5,12.9,8.7,13,9,13z M21,2H3
	C2.7,2,2.5,2.1,2.3,2.3C2.1,2.5,2,2.7,2,3v18c0,0.3,0.1,0.5,0.3,0.7C2.5,21.9,2.7,22,3,22h18c0.3,0,0.5-0.1,0.7-0.3S22,21.3,22,21V3
	c0-0.3-0.1-0.5-0.3-0.7C21.5,2.1,21.3,2,21,2z M20,20H4V4h16V20z"/>
</svg>
